<?xml version="1.0" standalone="no"?>
<!DOCTYPE svg PUBLIC "-//W3C//DTD SVG 20010904//EN"
 "http://www.w3.org/TR/2001/REC-SVG-20010904/DTD/svg10.dtd">
<svg version="1.0" xmlns="http://www.w3.org/2000/svg"
 width="1519.000000pt" height="1519.000000pt" viewBox="0 0 1519.000000 1519.000000"
 preserveAspectRatio="xMidYMid meet">
<metadata>
Created by potrace 1.11, written by Peter Selinger 2001-2013
</metadata>
<g transform="translate(0.000000,1519.000000) scale(0.100000,-0.100000)"
fill="#000000" stroke="none">
<path d="M7667 11134 c-1 -1 -65 -5 -142 -9 -77 -3 -158 -8 -180 -10 -77 -8
-140 -16 -165 -21 -14 -3 -45 -7 -69 -10 -24 -2 -48 -7 -53 -10 -5 -3 -21 -7
-36 -9 -31 -4 -137 -28 -197 -45 -22 -6 -47 -12 -55 -14 -34 -9 -126 -38 -140
-45 -8 -4 -36 -14 -62 -22 -27 -7 -48 -16 -48 -20 0 -3 -6 -6 -12 -6 -21 0
-207 -88 -308 -144 -60 -34 -218 -136 -236 -153 -7 -6 -36 -29 -65 -51 -62
-47 -279 -259 -279 -274 0 -5 -4 -11 -8 -13 -5 -1 -32 -34 -60 -73 -29 -38
-59 -79 -67 -90 -8 -10 -15 -23 -15 -27 0 -22 -39 -2 -67 35 -64 83 -208 237
-223 237 -5 0 -13 6 -17 14 -4 8 -37 37 -73 66 -36 28 -72 56 -80 63 -31 25
-179 117 -189 117 -5 0 -11 4 -13 8 -4 11 -174 93 -281 136 -146 59 -364 124
-507 152 -119 23 -231 41 -295 48 -27 3 -70 8 -95 11 -123 15 -312 17 -1845
19 l-1650 1 -2 -3402 c-1 -3180 0 -3403 15 -3404 53 -4 1972 -6 1994 -2 14 2
29 12 33 21 3 9 6 1106 5 2438 0 2147 1 2423 15 2434 11 10 126 11 537 6 288
-3 539 -8 558 -11 19 -3 42 -7 50 -8 9 -2 21 -6 28 -11 6 -4 12 -5 12 -1 0 3
16 -1 35 -9 20 -9 39 -16 43 -16 4 -1 36 -15 71 -33 92 -45 208 -161 252 -251
18 -38 34 -74 36 -80 1 -6 5 -22 8 -36 20 -78 26 -252 11 -340 -42 -264 -236
-451 -521 -506 -11 -2 -31 -6 -44 -9 -63 -12 -239 -18 -603 -19 -218 -1 -400
-4 -403 -8 -4 -4 -8 -363 -8 -797 0 -621 2 -793 12 -805 10 -12 42 -15 174
-15 l161 0 25 -28 c15 -15 35 -46 46 -68 11 -22 23 -42 28 -43 4 -2 7 -7 7
-12 0 -4 18 -37 40 -71 22 -35 43 -71 47 -79 4 -8 18 -33 32 -55 14 -22 26
-42 26 -45 0 -7 47 -84 55 -90 3 -3 11 -16 17 -30 7 -14 26 -47 43 -75 17 -27
33 -58 37 -67 3 -10 9 -18 14 -18 5 0 9 -4 9 -9 0 -5 18 -39 40 -75 22 -36 40
-70 40 -76 0 -5 3 -10 8 -10 4 0 21 -26 37 -58 17 -31 32 -59 35 -62 6 -6 85
-138 114 -190 10 -19 34 -59 52 -88 19 -29 34 -55 34 -57 0 -3 18 -34 39 -68
58 -93 91 -150 98 -169 3 -10 9 -18 14 -18 5 0 9 -4 9 -10 0 -5 18 -40 41 -76
22 -37 45 -78 50 -91 4 -12 13 -23 19 -23 5 0 10 -6 10 -14 0 -7 9 -25 20 -39
12 -15 20 -28 19 -29 -5 -10 48 -81 70 -92 21 -10 249 -13 1168 -12 628 1
1144 4 1148 7 3 3 -1 12 -10 19 -8 7 -15 19 -15 26 0 8 -4 14 -10 14 -5 0 -10
7 -10 15 0 8 -4 15 -10 15 -5 0 -10 5 -10 11 0 6 -13 30 -30 54 -16 24 -30 48
-30 53 0 6 -3 12 -8 14 -4 2 -34 47 -67 102 -33 54 -68 110 -77 125 -10 14
-21 33 -25 41 -5 8 -33 54 -63 103 -30 48 -59 95 -65 105 -5 9 -19 31 -30 47
-11 17 -25 39 -32 50 -47 80 -138 221 -145 223 -4 2 -8 8 -8 12 0 8 -73 130
-93 155 -20 26 -87 137 -87 145 0 4 -3 10 -8 12 -9 4 -92 136 -92 148 0 4 -4
10 -8 12 -7 3 -39 55 -114 188 -11 19 -28 46 -38 60 -10 14 -28 45 -41 69 -13
24 -28 51 -34 60 -64 104 -85 140 -85 149 0 6 -4 12 -8 14 -5 2 -23 30 -42 63
-18 33 -39 67 -45 75 -29 35 -65 113 -60 128 3 10 43 39 89 66 157 90 349 239
454 350 29 31 56 56 60 56 4 0 15 12 25 28 9 15 35 47 57 72 23 25 55 66 72
93 17 26 34 47 37 47 4 0 15 17 26 38 11 20 26 43 32 50 7 7 13 19 13 27 0 7
4 15 9 17 5 2 23 31 40 66 17 34 37 62 44 62 7 0 23 -10 37 -23 47 -43 178
-147 185 -147 4 0 20 -11 36 -25 35 -28 213 -135 228 -135 5 0 11 -3 13 -8 13
-30 639 -284 758 -307 11 -2 26 -7 33 -12 6 -4 21 -9 32 -11 26 -5 37 -8 55
-15 8 -4 24 -8 35 -10 11 -2 27 -7 35 -10 8 -3 26 -8 40 -11 14 -4 95 -25 180
-47 85 -22 166 -43 178 -45 13 -3 49 -12 80 -20 86 -23 125 -33 162 -40 14 -3
78 -20 142 -39 65 -19 122 -35 127 -35 5 0 22 -5 38 -12 15 -6 33 -12 38 -14
6 -1 33 -9 60 -17 28 -8 73 -22 102 -30 123 -35 225 -107 266 -187 25 -49 28
-63 24 -127 -6 -85 -35 -144 -93 -188 -37 -28 -136 -67 -209 -81 -51 -11 -437
-10 -530 0 -38 5 -81 9 -95 11 -130 13 -452 79 -515 105 -11 5 -51 18 -90 30
-85 26 -218 76 -265 100 -19 10 -39 19 -45 21 -25 6 -183 83 -207 101 -16 11
-28 16 -28 12 0 -4 -8 0 -17 8 -10 8 -45 30 -78 48 -74 40 -239 150 -243 162
-2 4 -8 8 -13 8 -9 0 -117 79 -157 115 -12 12 -35 29 -51 38 -29 17 -29 17
-55 -15 -37 -46 -37 -47 -86 -113 -24 -33 -47 -61 -52 -63 -4 -2 -8 -10 -8
-17 0 -7 -4 -15 -8 -17 -5 -1 -31 -34 -60 -73 -28 -38 -55 -75 -59 -80 -5 -6
-28 -37 -53 -70 -24 -33 -48 -64 -52 -70 -42 -52 -248 -329 -248 -334 0 -5
152 -257 203 -334 15 -23 33 -54 39 -69 7 -16 16 -28 20 -28 4 0 8 -7 8 -15 0
-8 5 -15 10 -15 6 0 10 -5 10 -11 0 -6 12 -29 28 -52 15 -23 32 -51 39 -62 7
-11 54 -87 105 -169 51 -82 102 -164 113 -182 11 -18 49 -79 85 -135 36 -57
67 -108 69 -113 2 -6 8 -15 13 -21 5 -5 32 -48 61 -94 28 -46 62 -90 74 -98
22 -15 273 -104 343 -123 19 -5 87 -23 150 -39 63 -16 115 -31 115 -32 0 -1 9
-3 20 -4 12 -1 54 -10 95 -19 88 -19 112 -24 160 -31 20 -3 47 -8 60 -11 14
-3 41 -7 60 -9 19 -2 46 -6 60 -8 14 -3 54 -8 90 -12 36 -4 79 -8 95 -10 154
-20 718 -27 880 -11 39 3 93 9 120 11 156 14 411 55 504 80 30 8 58 12 63 9 4
-3 8 -1 8 4 0 4 34 16 75 26 41 10 77 21 80 26 3 4 21 11 41 15 20 3 44 10 53
15 9 5 45 21 81 36 76 31 227 103 285 136 102 59 155 93 155 100 0 5 6 8 14 8
8 0 21 6 28 12 7 7 38 32 68 54 63 48 90 70 143 121 26 25 41 33 46 25 4 -6 7
-129 6 -273 0 -187 3 -266 11 -278 11 -15 100 -16 1011 -16 838 -1 1000 1
1012 13 12 12 14 177 13 1107 -1 841 2 1096 11 1103 7 6 546 9 1403 9 764 0
1402 3 1417 7 28 7 31 17 28 116 -1 19 -1 45 -1 58 0 24 0 46 0 65 -1 6 -1 59
-1 117 1 58 1 113 1 123 -1 9 -1 46 -1 82 0 36 0 73 0 83 0 9 0 84 1 166 1 81
-1 150 -4 153 -3 3 -1 16 4 29 6 14 6 26 -1 29 -5 4 -7 11 -4 16 12 18 7 701
-5 713 -8 8 -375 11 -1418 11 -1239 0 -1408 2 -1418 15 -8 11 -12 136 -12 422
-1 391 0 408 18 418 15 8 644 15 905 11 11 0 67 0 125 0 58 0 110 0 115 0 6 0
62 -1 126 -2 64 -1 121 1 127 4 5 4 12 4 15 1 8 -8 132 -8 145 0 5 3 12 3 15
0 3 -3 68 -5 144 -4 76 1 145 1 153 1 8 0 62 0 120 0 58 0 110 0 115 0 6 0 62
-1 126 -2 64 -1 121 1 127 4 5 4 12 4 15 1 8 -8 132 -8 145 0 5 3 12 3 15 0 3
-3 68 -5 144 -4 76 1 145 1 153 1 99 -3 207 2 215 10 14 14 14 1903 0 1922 -9
13 -333 15 -2552 15 -2350 0 -2542 -1 -2549 -17 -10 -23 -12 -301 -2 -331 5
-14 20 -34 35 -45 15 -11 61 -47 102 -80 42 -33 107 -84 145 -113 37 -30 77
-61 88 -70 78 -65 157 -155 154 -177 -2 -14 -87 -154 -191 -315 -23 -36 -69
-107 -101 -158 -33 -51 -67 -105 -76 -120 -10 -15 -25 -40 -34 -57 -9 -16 -23
-35 -30 -43 -8 -7 -14 -18 -14 -23 0 -5 -15 -30 -34 -56 -18 -27 -37 -59 -42
-73 -4 -14 -8 -357 -8 -762 -1 -405 -4 -739 -8 -743 -4 -4 -19 5 -33 19 -14
14 -30 26 -35 26 -6 0 -10 5 -10 10 0 6 -5 10 -10 10 -6 0 -23 11 -38 25 -15
14 -32 25 -39 25 -6 0 -13 4 -15 9 -9 24 -304 186 -448 246 -36 15 -78 33 -95
40 -161 71 -557 198 -775 249 -8 2 -35 9 -60 16 -25 7 -54 14 -65 16 -11 2
-40 8 -65 14 -25 6 -54 13 -65 15 -95 18 -555 124 -575 132 -8 3 -21 8 -27 10
-7 1 -19 5 -25 6 -15 5 -44 15 -73 27 -11 4 -40 16 -65 25 -76 28 -168 84
-210 128 -45 47 -64 96 -65 177 -1 68 40 156 91 195 39 30 125 62 187 69 23 3
53 8 67 11 28 6 217 7 295 1 43 -3 83 -8 180 -21 53 -7 125 -19 175 -30 14 -3
34 -7 45 -9 52 -11 210 -53 245 -65 14 -5 66 -24 115 -42 101 -36 154 -59 304
-131 154 -74 269 -144 526 -322 17 -12 33 -25 36 -29 14 -19 41 15 139 179 58
96 110 181 117 188 6 7 20 28 30 47 10 19 33 55 51 81 17 26 32 49 32 52 0 3
25 44 55 91 30 46 55 87 55 91 0 3 6 11 13 19 6 7 26 36 42 64 17 28 81 133
144 234 62 100 121 196 131 212 9 17 34 57 56 90 21 33 44 69 49 80 6 11 19
32 28 46 l17 26 -53 49 c-103 94 -331 274 -347 274 -6 0 -10 4 -10 8 0 4 -13
16 -30 25 -16 10 -35 23 -42 30 -22 21 -157 107 -168 107 -5 0 -10 4 -10 8 0
4 -12 13 -27 19 -16 7 -52 26 -82 43 -56 31 -243 115 -301 135 -3 1 -18 7 -33
13 -16 7 -30 12 -32 12 -2 0 -16 5 -32 12 -15 6 -33 12 -40 14 -15 3 -83 24
-103 31 -8 3 -24 8 -35 10 -27 6 -37 9 -55 16 -25 9 -212 55 -255 62 -40 6
-76 14 -93 19 -9 3 -35 7 -57 10 -22 3 -51 8 -65 11 -14 3 -43 7 -65 10 -22 2
-62 7 -90 10 -27 4 -68 8 -90 10 -22 2 -40 4 -40 5 0 2 -15 3 -228 15 -102 6
-365 12 -370 9z"/>
</g>
</svg>
