<?xml version="1.0" encoding="utf-8"?>
<!-- Generator: Adobe Illustrator 24.0.1, SVG Export Plug-In . SVG Version: 6.00 Build 0)  -->
<svg version="1.1" id="Layer_1" xmlns="http://www.w3.org/2000/svg" xmlns:xlink="http://www.w3.org/1999/xlink" x="0px" y="0px"
	 viewBox="0 0 1519.34 729.63" enable-background="new 0 0 1519.34 729.63" xml:space="preserve">
<g>
	<path d="M752.71,12.24c1.09-0.05,2.17-0.1,3.26-0.14c66.43-2.56,137.68,6.55,198.59,34.43c27.14,12.42,49.46,30.07,72.75,48.29
		c5.29,4.14,9.97,9.04,14.85,13.51c-31.49,50.73-62.66,100.97-93.75,151.05c-11.35-7.79-21.34-15.27-31.93-21.79
		c-44.81-27.61-93.42-43.38-146.18-44.93c-10.01-0.29-20.32,0.98-30.09,3.27c-14.26,3.33-21.73,14.52-20.61,28.37
		c0.91,11.31,8.38,17.73,17.56,22.55c18.34,9.63,38.4,14.05,58.4,18.31c39.09,8.32,78.01,17.25,115.58,31.1
		c30.87,11.38,60.46,25.26,86.13,46.36c0.52,0.43,1.39,0.43,2.17,0.65c0.23-0.82,0.48-1.29,0.48-1.76
		c-0.03-47.99-0.09-95.99-0.07-143.98c0-2.03,0.28-4.38,1.31-6.05c6.96-11.32,14.16-22.49,21.27-33.71
		c10.09-15.92,20.24-31.82,30.16-47.85c0.65-1.05,0.17-3.64-0.74-4.68c-3.78-4.35-7.56-8.84-12.01-12.46
		c-12.44-10.14-25.26-19.83-37.78-29.87c-1.26-1.01-2.13-3.25-2.17-4.94c-0.21-8.99,0.23-18.01-0.22-26.99
		c-0.25-4.88,1.49-5.82,5.9-5.82c166.88,0.09,333.75,0.09,500.63-0.01c4.52,0,5.84,1.18,5.83,5.89
		c-0.18,60.5-0.12,120.99-0.12,181.49c0,7.41,0.01,7.41-7.18,7.41c-98.26,0-196.52,0.02-294.78-0.09c-4.3,0-5.7,1.06-5.65,5.58
		c0.23,24.5,0.12,49,0.11,73.49c0,7.29-0.03,7.29,7.3,7.29c90.93,0,181.87,0.02,272.8-0.08c4.38-0.01,6.01,0.88,6,5.77
		c-0.19,54.66-0.13,109.33-0.13,163.99c0,7.19,0.01,7.2-7.31,7.2c-90.1,0-180.2,0-270.3,0c-1.33,0-2.67,0.09-4-0.01
		c-3.54-0.27-4.45,1.35-4.45,4.78c0.1,70.66,0.04,141.32,0.22,211.98c0.01,5.05-1.2,6.47-6.34,6.45
		c-51.13-0.2-102.26-0.12-153.39-0.12c-13.49,0-26.98-0.07-40.47,0.05c-3.35,0.03-4.69-0.91-4.65-4.54
		c0.2-16.66,0.13-33.33,0.12-49.99c0-1.04-0.25-2.08-0.47-3.7c-1.19,0.89-1.87,1.3-2.43,1.84c-13,12.59-27.62,22.97-43.38,31.76
		c-28.33,15.8-59.63,26.3-91.61,31.17c-70.34,10.72-141.16,7.02-209.82-11.95c-13.47-3.72-26.77-8.06-39.82-13.04
		c-2.03-0.77-4.21-2.28-5.35-4.07c-11.63-18.28-23.09-36.66-34.54-55.06c-11.42-18.37-22.77-36.78-34.15-55.17
		c-5.54-8.95-11.08-17.89-16.57-26.76c21.41-28.43,42.57-56.46,63.59-84.59c2.22-2.97,3.56-2.15,5.89-0.23
		c60.52,49.82,129.78,76.05,208.34,76.94c12.51,0.14,25.02-0.3,36.88-5.04c9.38-3.75,16.12-9.92,17.58-20.49
		c1.58-11.4-2.58-20.27-12.26-26.39c-3.78-2.39-7.66-4.99-11.87-6.26c-21-6.32-41.95-12.97-63.24-18.13
		c-38.35-9.28-76.61-18.79-113.38-33.34c-31.26-12.37-60.88-27.61-85.84-50.72c-0.64-0.59-1.71-0.72-2.4-0.99
		c-0.42,0.33-0.6,0.4-0.67,0.53c-20.86,41.27-52.3,72.17-92.49,94.47c-2.98,1.65-3.52,3.03-1.63,6.18
		c14.75,24.55,29.19,49.28,43.93,73.83c7.54,12.55,15.48,24.86,23.29,37.24c10.69,16.97,21.51,33.87,32.13,50.88
		c10.7,17.14,21.21,34.39,31.84,51.57c2.69,4.36,5.5,8.65,8.92,13.99c-3.35,0-5.3,0-7.26,0c-73.28,0-146.56-0.04-219.84,0.11
		c-4.59,0.01-7.22-1.4-9.53-5.33c-17.79-30.42-35.76-60.72-53.7-91.05c-18.44-31.19-36.94-62.36-55.32-93.59
		c-1.97-3.34-4.21-4.96-8.32-4.78c-8.15,0.35-16.33-0.16-24.47,0.21c-4.85,0.22-6.13-1.34-6.12-6.17
		c0.18-49.83,0.11-99.66,0.11-149.49c0-6.85-0.01-6.85,6.61-6.85c21.32,0,42.64,0.2,63.95-0.08c10.46-0.14,21.04-0.32,31.34-1.92
		c30.12-4.7,53.98-23.01,56.74-57.42c1.66-20.7-1.83-40.01-17.79-54.97c-13.01-12.19-29.29-17.6-46.52-18.11
		c-32.61-0.96-65.27-0.5-97.91-0.75c-3.84-0.03-4.19,1.84-4.19,4.98c0.06,45.49,0,90.98,0,136.47
		c0.01,114.33,0.01,228.65,0.17,342.98c0.01,4.66-1.31,5.9-5.88,5.89c-64.45-0.14-128.91-0.09-193.36-0.13
		c-1.95,0-3.91-0.52-5.86-0.8c0-226.67,0-453.33,0-680c101.91,0,203.81-0.11,305.72,0.04c43.73,0.06,86.67,5.57,127.96,20.81
		c38.32,14.15,70.86,36.43,95.87,69.08c1.95,2.54,2.8,3.21,4.86,0.02c10.44-16.2,23.1-30.5,37.78-42.98
		C631.52,32.99,692.91,15.08,752.71,12.24z"/>
</g>
</svg>
