<svg width="88" height="23" viewBox="0 0 88 23" fill="none" xmlns="http://www.w3.org/2000/svg">
<g id="DBOX">
<path id="Vector" d="M5.92775 20.8152H5.92765L1.87797 20.8164L1.87797 1.84187L5.89886 1.84187C8.97619 1.84187 11.206 2.86527 12.6704 4.51173C14.1406 6.1646 14.8751 8.48573 14.8751 11.1407V11.3716C14.8751 14.0709 14.1398 16.4291 12.6721 18.1074C11.2106 19.7786 8.98852 20.8152 5.92775 20.8152ZM1 0.65H0.65V1L0.65 21.6557V22.0057H1H5.98291C9.38215 22.0057 11.9271 20.8316 13.6174 18.8886C15.3014 16.953 16.1044 14.2924 16.1044 11.3716V11.1407C16.1044 8.19905 15.2278 5.57401 13.5156 3.68011C11.7991 1.78134 9.27148 0.65 6.03939 0.65L1 0.65Z" fill="#FAFAFA" stroke="#FAFAFA" stroke-width="0.7"/>
<path id="Vector_2" d="M36.3185 12.1868C35.6836 11.5293 34.8516 11.0542 33.8573 10.7572C34.475 10.4859 35.0258 10.1098 35.4739 9.61745C36.227 8.78972 36.6633 7.66196 36.6633 6.23019V6.11269C36.6633 4.3385 36.0598 2.95707 34.9843 2.02434C33.916 1.09795 32.4236 0.65 30.7065 0.65L25.4609 0.65H25.1109V1L25.1109 21.6571V22.0071H25.4609H31.5431C33.376 22.0071 34.922 21.5062 36.0124 20.4907C37.1065 19.4716 37.6969 17.9762 37.6969 16.0812V15.9651C37.6969 14.4045 37.2263 13.1269 36.3185 12.1868ZM36.4676 16.0798C36.4676 17.6448 36.0205 18.8144 35.2138 19.5944C34.4054 20.3762 33.1859 20.8152 31.5445 20.8152H26.3415L26.3415 11.4592L30.7906 11.4592C32.6722 11.4592 34.0897 11.8698 35.0301 12.6185C35.9578 13.357 36.4676 14.4614 36.4676 15.9637V16.0798ZM35.4353 6.23019C35.4353 7.5045 35.0063 8.50058 34.2386 9.18215C33.4656 9.86836 32.3087 10.2715 30.7906 10.2715L26.3415 10.2715V1.84187L30.7078 1.84187C32.2157 1.84187 33.3918 2.21836 34.1867 2.91698C34.9745 3.60933 35.4353 4.65968 35.4353 6.11269V6.23019Z" fill="#FAFAFA" stroke="#FAFAFA" stroke-width="0.7"/>
<path id="Vector_3" d="M62.9507 11.3128V11.5437C62.9507 16.9908 59.1859 21.1595 54.3015 21.1595C49.3023 21.1595 45.5407 16.9857 45.5407 11.6298V11.3989C45.5407 5.98481 49.2766 1.84187 54.2464 1.84187C59.1917 1.84187 62.9507 5.95823 62.9507 11.3128ZM44.3141 11.3989V11.6298C44.3141 17.5748 48.6389 22.35 54.3015 22.35C59.8023 22.35 64.18 17.5421 64.18 11.5437V11.3128C64.18 5.33582 59.7956 0.65 54.2464 0.65C48.6947 0.65 44.3141 5.36721 44.3141 11.3989Z" fill="#FAFAFA" stroke="#FAFAFA" stroke-width="0.7"/>
<path id="Vector_4" d="M70.0153 21.8677L77.6528 11.8346L85.2338 21.8667L85.3388 22.0057H85.513H86.1027H86.804L86.3824 21.4453L78.458 10.9129L85.9774 1.21445L86.415 0.65L85.7008 0.65L85.1124 0.65H84.9414L84.8363 0.784909L77.7072 9.93641L70.5537 0.784458L70.4486 0.65H70.2779L69.6909 0.65L68.9756 0.65L69.4145 1.21477L76.9039 10.8522L68.8696 21.4442L68.4437 22.0057H69.1484H69.7368H69.9103L70.0153 21.8677Z" fill="#FAFAFA" stroke="#FAFAFA" stroke-width="0.7"/>
</g>
</svg>
